{"glyphs":{"░":{"ha":1389,"x_min":0,"x_max":1215,"o":"m 1042 -194 l 1042 -21 l 1215 -21 l 1215 -194 l 1042 -194 m 1042 153 l 1042 326 l 1215 326 l 1215 153 l 1042 153 m 1042 500 l 1042 674 l 1215 674 l 1215 500 l 1042 500 m 1042 847 l 1042 1021 l 1215 1021 l 1215 847 l 1042 847 m 694 -21 l 694 153 l 868 153 l 868 -21 l 694 -21 m 694 326 l 694 500 l 868 500 l 868 326 l 694 326 m 694 674 l 694 847 l 868 847 l 868 674 l 694 674 m 694 1021 l 694 1194 l 868 1194 l 868 1021 l 694 1021 m 347 -194 l 347 -21 l 521 -21 l 521 -194 l 347 -194 m 347 153 l 347 326 l 521 326 l 521 153 l 347 153 m 347 500 l 347 674 l 521 674 l 521 500 l 347 500 m 347 847 l 347 1021 l 521 1021 l 521 847 l 347 847 m 0 -21 l 0 153 l 174 153 l 174 -21 l 0 -21 m 0 326 l 0 500 l 174 500 l 174 326 l 0 326 m 0 674 l 0 847 l 174 847 l 174 674 l 0 674 m 0 1021 l 0 1194 l 174 1194 l 174 1021 l 0 1021 z "},"■":{"ha":1389,"x_min":188,"x_max":1201,"o":"m 1122 1014 q 1178 990 1154 1014 q 1201 935 1201 967 l 1201 79 q 1178 24 1201 47 q 1122 0 1154 0 l 267 0 q 211 24 235 0 q 188 79 188 47 l 188 935 q 211 990 188 967 q 267 1014 235 1014 l 1122 1014 z "},"⚫":{"ha":806,"x_min":69,"x_max":736,"o":"m 69 486 q 167 722 69 624 q 403 819 265 819 q 638 722 540 819 q 736 486 736 624 q 638 251 736 349 q 403 153 540 153 q 167 251 265 153 q 69 486 69 349 l 69 486 z "},"厂":{"ha":1389,"x_min":65,"x_max":1282,"o":"m 176 -37 q 146 -62 168 -57 q 108 -51 124 -67 q 88 44 65 -14 q 174 667 174 275 l 174 989 q 197 1044 174 1021 q 253 1067 221 1067 l 1233 1067 q 1267 1052 1253 1067 q 1282 1018 1282 1038 q 1267 984 1282 999 q 1233 969 1253 969 l 297 969 q 285 958 285 969 l 285 601 q 176 -37 285 217 z "},"巳":{"ha":1389,"x_min":215,"x_max":1272,"o":"m 411 -87 q 332 -82 358 -85 q 279 -69 306 -79 q 243 -50 253 -60 q 226 -13 233 -40 q 217 42 218 14 q 215 122 215 69 l 215 982 q 239 1037 215 1014 q 294 1060 263 1060 l 1094 1060 q 1150 1037 1126 1060 q 1174 982 1174 1014 l 1174 494 q 1158 456 1174 472 q 1119 440 1142 440 q 1081 456 1097 440 q 1065 494 1065 472 l 1065 517 q 1053 528 1065 528 l 339 528 q 326 515 326 528 l 326 129 q 340 29 326 44 q 431 10 353 14 q 676 3 567 3 q 938 10 782 3 q 1017 14 993 13 q 1070 25 1040 15 q 1109 46 1100 35 q 1131 88 1118 57 q 1149 152 1144 118 q 1161 250 1154 186 q 1181 285 1163 272 q 1221 296 1199 299 q 1258 276 1243 293 q 1269 235 1272 258 q 1253 109 1261 156 q 1229 24 1246 63 q 1197 -33 1213 -15 q 1142 -63 1181 -50 q 1066 -80 1103 -76 q 958 -87 1029 -83 q 671 -94 801 -94 q 411 -87 560 -94 m 326 953 l 326 635 q 339 622 326 622 l 1053 622 q 1065 635 1065 622 l 1065 953 q 1053 965 1065 965 l 339 965 q 326 953 326 965 z "},"▪":{"ha":1042,"x_min":267,"x_max":774,"o":"m 696 761 q 751 738 728 761 q 774 682 774 714 l 774 332 q 751 277 774 300 q 696 254 728 254 l 346 254 q 290 277 314 254 q 267 332 267 300 l 267 682 q 290 738 267 714 q 346 761 314 761 l 696 761 z "},"〰":{"ha":1389,"x_min":0,"x_max":1389,"o":"m 1109 332 q 1093 326 1109 332 q 1042 319 1078 319 q 974 332 1006 319 q 915 371 943 344 q 870 416 886 397 q 828 469 854 435 q 756 553 785 528 q 694 579 728 579 q 633 553 661 579 q 561 469 604 528 q 519 416 535 435 q 474 371 503 397 q 415 332 446 344 q 347 319 383 319 q 280 332 311 319 q 220 371 249 344 q 176 416 192 397 q 133 469 160 435 q 62 553 90 528 q 0 579 33 579 l 0 681 q 67 668 36 681 q 127 629 99 656 q 172 584 156 603 q 214 531 188 565 q 285 447 257 472 q 347 421 314 421 q 409 447 381 421 q 481 531 438 472 q 523 584 507 565 q 567 629 539 603 q 627 668 596 656 q 694 681 658 681 q 762 668 731 681 q 822 629 793 656 q 866 584 850 603 q 908 531 882 565 q 980 447 951 472 q 1042 421 1008 421 q 1103 447 1075 421 q 1175 531 1132 472 q 1217 584 1201 565 q 1262 629 1233 603 q 1322 668 1290 656 q 1389 681 1353 681 l 1389 579 q 1327 553 1356 579 q 1256 469 1299 528 q 1213 416 1229 435 q 1169 371 1197 397 q 1109 332 1140 344 z "},"⺌":{"ha":1389,"x_min":172,"x_max":1221,"o":"m 733 333 q 725 325 733 333 q 694 317 717 317 q 656 333 672 317 q 639 372 639 350 l 639 704 q 656 744 639 728 q 694 760 672 760 q 733 744 717 760 q 750 704 750 728 l 750 372 q 733 333 750 350 m 325 382 q 183 617 264 490 q 178 653 172 633 q 203 681 183 674 q 247 682 225 689 q 281 656 268 675 q 424 419 360 536 q 426 381 433 400 q 400 354 419 361 q 358 354 379 346 q 325 382 336 363 m 990 356 q 967 383 972 364 q 972 419 961 403 q 1111 657 1044 532 q 1142 685 1122 676 q 1185 686 1163 693 q 1213 660 1204 679 q 1211 621 1221 640 q 1067 378 1150 506 q 990 356 1039 336 z "},"⺍":{"ha":1389,"x_min":174,"x_max":1219,"o":"m 303 382 q 183 611 247 503 q 180 649 174 629 q 206 676 186 668 q 248 679 226 686 q 281 653 269 672 q 403 422 349 539 q 403 383 413 403 q 375 354 394 363 q 333 353 354 346 q 303 382 313 361 m 664 421 q 549 651 607 547 q 545 690 539 669 q 571 718 551 710 q 613 720 592 728 q 646 693 635 713 q 764 458 707 586 q 765 418 774 439 q 736 390 757 397 q 694 391 715 382 q 664 421 674 400 m 933 324 q 909 356 914 335 q 918 394 904 376 q 1106 674 1028 539 q 1139 703 1117 694 q 1183 701 1161 711 q 1212 672 1204 693 q 1208 632 1219 651 q 1015 342 1136 504 q 978 317 1001 322 q 933 324 954 313 z "},"⺣":{"ha":1389,"x_min":93,"x_max":1300,"o":"m 122 315 q 99 344 104 325 q 103 381 93 363 q 254 679 188 529 q 282 707 263 699 q 321 707 301 715 q 348 679 340 699 q 347 640 356 660 q 193 335 281 486 q 162 310 183 317 q 122 315 140 304 m 525 343 q 488 639 507 515 q 497 680 485 661 q 532 701 510 699 q 573 691 554 704 q 594 656 592 678 q 632 361 618 499 q 620 319 635 338 q 583 299 606 301 q 544 308 561 296 q 525 343 526 321 m 856 344 q 768 643 822 472 q 772 683 761 664 q 803 707 782 701 q 844 702 825 713 q 871 669 864 692 q 958 371 922 510 q 953 331 964 350 q 919 307 942 313 q 880 313 899 301 q 856 344 861 324 m 1199 346 q 1047 651 1122 511 q 1044 690 1038 669 q 1068 718 1050 710 q 1108 719 1088 726 q 1139 693 1128 713 q 1292 386 1219 544 q 1292 347 1300 367 q 1265 319 1285 328 q 1226 319 1246 311 q 1199 346 1207 326 z "},"○":{"ha":1389,"x_min":146,"x_max":1243,"o":"m 1036 849 q 965 919 1036 849 q 694 990 894 990 q 353 849 494 990 q 211 507 211 707 q 353 165 211 307 q 694 24 494 24 q 1036 165 894 24 q 1178 507 1178 307 q 1036 849 1178 707 m 1083 119 q 1002 39 1083 119 q 694 -42 922 -42 q 306 119 467 -42 q 146 507 146 281 q 306 894 146 733 q 694 1056 467 1056 q 1083 894 922 1056 q 1243 507 1243 733 q 1083 119 1243 281 z "},"个":{"ha":1389,"x_min":60,"x_max":1329,"o":"m 132 700 q 94 699 113 692 q 68 725 76 706 q 67 763 60 744 q 93 792 74 782 q 574 1083 364 925 q 694 1125 628 1125 q 815 1083 761 1125 q 1296 792 1025 925 q 1322 763 1315 782 q 1321 725 1329 744 q 1294 699 1313 707 q 1257 700 1275 692 q 703 1042 951 847 q 685 1040 694 1047 q 132 700 438 846 m 639 796 q 656 835 639 819 q 694 851 672 851 q 733 835 717 851 q 750 796 750 819 l 750 -51 q 733 -91 750 -75 q 694 -107 717 -107 q 656 -91 672 -107 q 639 -51 639 -75 l 639 796 z "},"π":{"ha":875,"x_min":76,"x_max":799,"o":"m 118 639 q 88 651 100 639 q 76 681 76 663 q 88 710 76 699 q 118 722 100 722 l 757 722 q 787 710 775 722 q 799 681 799 699 q 787 651 799 663 q 757 639 775 639 l 683 639 q 671 626 671 639 l 671 50 q 656 15 671 29 q 621 0 642 0 q 586 15 600 0 q 572 50 572 29 l 572 626 q 560 639 572 639 l 315 639 q 303 626 303 639 l 303 50 q 289 15 303 29 q 254 0 275 0 q 219 15 233 0 q 204 50 204 29 l 204 626 q 192 639 204 639 l 118 639 z "},"⁐":{"ha":1208,"x_min":21,"x_max":1188,"o":"m 58 -164 q 21 -92 21 -140 q 34 -71 21 -78 q 60 -72 47 -64 q 604 -226 300 -226 q 1149 -72 908 -226 q 1174 -71 1161 -64 q 1188 -92 1188 -78 q 1150 -164 1188 -140 q 604 -319 910 -319 q 58 -164 299 -319 m 60 1069 q 34 1068 47 1061 q 21 1090 21 1075 q 58 1161 21 1138 q 604 1317 299 1317 q 1150 1161 910 1317 q 1188 1090 1188 1138 q 1174 1068 1188 1075 q 1149 1069 1161 1061 q 604 1225 906 1225 q 60 1069 303 1225 z "},"◌":{"ha":1389,"x_min":178,"x_max":1211,"o":"m 879 900 q 858 926 864 908 q 861 958 853 943 q 885 978 868 974 q 917 975 903 983 l 989 933 q 1007 908 1003 925 q 1001 878 1011 892 q 943 864 979 844 l 879 900 m 400 81 q 382 106 386 89 q 388 136 378 122 q 446 150 410 169 l 510 114 q 531 88 525 106 q 528 56 536 71 q 503 35 521 40 q 472 39 486 31 l 400 81 m 1065 200 q 1051 258 1032 222 l 1088 322 q 1113 343 1096 338 q 1146 340 1131 349 q 1166 316 1161 333 q 1163 285 1171 299 l 1121 213 q 1096 194 1113 199 q 1065 200 1079 190 m 268 801 q 293 819 276 815 q 324 814 310 824 q 338 756 357 792 l 301 692 q 276 671 293 676 q 243 674 258 665 q 223 698 228 681 q 226 729 218 715 l 268 801 m 1088 692 l 1051 756 q 1065 814 1032 792 q 1096 819 1079 824 q 1121 801 1113 815 l 1163 729 q 1166 698 1171 715 q 1146 674 1161 681 q 1113 671 1131 665 q 1088 692 1096 676 m 324 200 q 293 194 310 190 q 268 213 276 199 l 226 285 q 223 316 218 299 q 243 340 228 333 q 276 343 258 349 q 301 322 293 338 l 338 258 q 324 200 357 222 m 943 150 q 1001 136 979 169 q 1007 106 1011 122 q 989 81 1003 89 l 917 39 q 885 35 903 31 q 861 56 868 40 q 858 88 853 71 q 879 114 864 106 l 943 150 m 446 864 q 388 878 410 844 q 382 908 378 892 q 400 933 386 925 l 472 975 q 503 978 486 983 q 528 958 521 974 q 531 926 536 943 q 510 900 525 908 l 446 864 m 1169 588 q 1199 577 1186 589 q 1211 549 1211 565 l 1211 465 q 1199 437 1211 449 q 1169 426 1186 425 q 1140 440 1151 428 q 1128 469 1128 451 l 1128 544 q 1140 574 1128 563 q 1169 588 1151 586 m 219 426 q 190 437 203 425 q 178 465 178 449 l 178 549 q 190 577 178 565 q 219 588 203 589 q 249 574 238 586 q 261 544 261 563 l 261 469 q 249 440 261 451 q 219 426 238 428 m 732 74 q 762 62 750 74 q 775 32 774 50 q 765 3 776 15 q 736 -10 753 -10 l 653 -10 q 624 3 636 -10 q 614 32 613 15 q 627 62 615 50 q 657 74 639 74 l 732 74 m 736 1024 q 765 1011 753 1024 q 775 982 776 999 q 762 952 774 964 q 732 940 750 940 l 657 940 q 627 952 639 940 q 614 982 615 964 q 624 1011 613 999 q 653 1024 636 1024 l 736 1024 z "},"●":{"ha":1389,"x_min":146,"x_max":1243,"o":"m 146 507 q 306 894 146 733 q 694 1056 467 1056 q 1083 894 922 1056 q 1243 507 1243 733 q 1083 119 1243 281 q 694 -42 922 -42 q 306 119 467 -42 q 146 507 146 281 l 146 507 z "},"█":{"ha":1389,"x_min":0,"x_max":1389,"o":"m 0 -194 l 0 1194 l 1389 1194 l 1389 -194 l 0 -194 z "},"☗":{"ha":1389,"x_min":111,"x_max":1278,"o":"m 185 -74 q 132 -50 153 -74 q 115 4 111 -26 l 204 760 q 282 878 213 838 l 626 1076 q 763 1076 694 1117 l 1107 878 q 1185 760 1176 838 l 1274 4 q 1257 -50 1278 -26 q 1204 -74 1236 -74 l 185 -74 z "},"⌈":{"ha":653,"x_min":160,"x_max":535,"o":"m 247 -179 q 240 -187 247 -179 q 211 -194 232 -194 q 175 -179 190 -194 q 160 -143 160 -164 l 160 990 q 183 1046 160 1022 q 239 1069 207 1069 l 493 1069 q 523 1058 511 1069 q 535 1028 535 1046 q 523 998 535 1010 q 493 986 511 986 l 274 986 q 263 975 263 986 l 263 -143 q 247 -179 263 -164 z "},"ひ":{"ha":1389,"x_min":135,"x_max":1326,"o":"m 181 903 q 148 917 161 903 q 135 949 135 931 q 149 982 135 968 q 181 996 163 996 l 590 996 q 624 981 610 996 q 639 947 639 967 q 597 874 639 901 q 383 640 464 782 q 303 357 303 499 q 389 112 303 196 q 635 28 475 28 q 897 132 801 28 q 993 421 993 236 q 878 929 993 674 q 896 1003 858 972 q 931 1013 911 1015 q 964 996 950 1011 q 1306 667 1114 819 q 1324 634 1321 654 q 1315 599 1326 614 q 1283 581 1304 583 q 1247 590 1263 578 q 1028 792 1122 692 q 1025 793 1026 793 l 1025 790 q 1097 399 1097 579 q 972 60 1097 185 q 635 -65 847 -65 q 312 43 426 -65 q 197 351 197 151 q 275 644 197 499 q 489 899 353 790 q 490 901 490 900 q 489 903 490 903 l 181 903 z "}}}
